<svg width="306" height="104" viewBox="0 0 306 104" fill="none" xmlns="http://www.w3.org/2000/svg">
<g clip-path="url(#clip0_145_8435)">
<path fill-rule="evenodd" clip-rule="evenodd" d="M55.1987 20.5105C55.569 22.3516 56.0021 23.7675 56.5095 24.7633C57.0104 25.7443 57.8645 26.2362 59.0658 26.2362L55.88 34.0309C54.6251 37.079 53.2951 41.7098 51.8556 47.8897C50.4392 54.0961 49.989 58.5064 50.5101 61.149C51.024 63.7572 52.2318 65.4628 54.1148 66.2806C55.9895 67.0787 57.7884 67.4846 59.5286 67.4846C62.1809 67.4846 65.2362 67.1876 68.6911 66.5617C72.1361 65.9517 74.7326 65.3122 76.48 64.6496C77.3001 64.3447 77.8109 63.8551 78.0579 63.2107C78.2843 62.5735 78.2019 61.2444 77.8055 59.2334C77.5926 58.1689 77.1204 57.6363 76.3488 57.6363C75.2866 57.6363 74.0664 57.8721 72.7036 58.3502C71.3358 58.8158 69.9505 59.1958 68.55 59.4739C67.1436 59.7749 64.9291 59.9129 61.8979 59.9129C61.1281 59.9129 60.6178 59.8231 60.3597 59.6417C60.1093 59.4739 59.9345 59.1569 59.8427 58.7019C59.6006 57.4808 59.8427 55.353 60.5607 52.3015C61.2647 49.2419 61.9921 46.7239 62.7139 44.7239L68.8801 44.5691C71.4964 44.5052 73.2398 44.4348 74.1224 44.3279C75.0062 44.2273 75.5694 44.012 75.8066 43.6821C76.0422 43.3383 76.1279 42.7272 76.0338 41.834C75.9645 41.0062 75.9551 40.3933 75.9861 39.9867C75.9954 39.8843 76.0181 39.739 76.0536 39.5714C76.0831 39.3731 76.0975 39.212 76.0685 39.0669C75.8367 37.9018 74.2851 37.3132 71.4233 37.3132C69.2106 37.3132 66.7629 37.4644 64.0712 37.7853C64.8269 35.2907 65.8928 32.3069 67.2752 28.8388C67.9495 27.0914 68.5021 25.9241 68.9177 25.3195C69.3317 24.7059 69.916 24.3369 70.672 24.1754C71.4287 24.0197 72.8838 23.9459 75.0623 23.9459C75.6567 23.9459 77.5755 24.073 80.8421 24.3369C80.9623 24.3369 81.1875 24.3556 81.5203 24.3797C81.8427 24.4047 82.0931 24.4179 82.2425 24.4179C83.1961 24.4179 83.6069 24.1122 83.4818 23.4916C83.3984 23.0783 82.9902 22.2635 82.2574 21.0586C80.9508 18.8973 79.8517 17.5337 78.937 16.943C78.0242 16.3545 76.7075 16.0615 74.9912 16.0615C71.1778 16.0615 66.8412 16.3545 61.9795 16.943C57.1046 17.534 54.8492 18.7149 55.1987 20.5105Z" fill="#FF182F"/>
<path fill-rule="evenodd" clip-rule="evenodd" d="M236.693 62.7933C237.503 61.5527 238.18 60.5834 238.718 59.8922C239.28 59.1807 240.347 57.8368 241.89 55.8457C243.447 53.863 244.982 51.9046 246.494 49.9948C247.997 48.0868 249.441 46.312 250.798 44.6512C252.18 43.0011 253.705 41.2078 255.393 39.277L253.35 48.1534C252.612 51.4816 252.132 53.6927 251.923 54.7828C251.723 55.8696 251.583 56.9786 251.507 58.0937C251.433 59.2237 251.475 60.2227 251.646 61.0995C251.867 62.2292 252.508 63.278 253.527 64.2293C254.56 65.2004 255.676 65.9616 256.898 66.5389C258.127 67.1152 259.058 67.402 259.713 67.402C260.593 67.402 261.157 66.6679 261.385 65.1864C261.607 63.7089 261.871 60.6428 262.143 55.9863C262.444 51.3466 262.917 46.8076 263.587 42.3897C264.249 37.9621 265.351 33.3696 266.908 28.6129C270.173 25.8152 271.669 23.7438 271.406 22.3859C271.235 21.5191 270.655 20.4689 269.674 19.2278C268.675 17.9892 267.716 17.3709 266.787 17.3709C265.9 17.3709 264.107 18.6711 261.385 21.2827C258.66 23.8989 255.665 27.0122 252.38 30.6417C249.111 34.2775 246.111 37.691 243.387 40.9004C240.651 44.095 239.001 46.113 238.405 46.9186C239.339 42.5441 240.18 38.9479 240.923 36.1419C241.686 33.3435 242.471 30.6381 243.276 28.0011C244.093 25.3717 244.59 23.6538 244.804 22.849C245.002 22.037 245.052 21.3794 244.955 20.8797C244.874 20.4685 244.388 19.8578 243.522 19.0519C242.66 18.2428 241.722 17.5121 240.716 16.8555C239.721 16.2011 239.024 15.8662 238.621 15.8662C237.915 15.8662 237.273 16.546 236.691 17.8925C236.108 19.2425 235.491 21.2322 234.875 23.862C234.247 26.481 233.912 27.8546 233.88 27.966C230.508 40.7528 228.417 49.3621 227.598 53.7854C226.786 58.2035 226.453 60.8277 226.615 61.6841C226.75 62.3066 227.598 63.1956 229.205 64.306C230.789 65.4148 232.094 65.9712 233.12 65.9712C233.786 65.9712 234.339 65.7559 234.794 65.3167C235.237 64.8775 235.869 64.0398 236.693 62.7933Z" fill="#FF182F"/>
<path fill-rule="evenodd" clip-rule="evenodd" d="M304.529 21.6032C303.649 20.8278 302.724 20.1154 301.734 19.4703C300.74 18.8241 300.123 18.5014 299.867 18.5014C299.079 18.5014 298.143 19.7203 297.088 22.1255C296.03 24.5451 295.061 27.158 294.192 29.9726C293.315 32.7882 292.705 34.8425 292.381 36.1091L289.944 36.8286C289.154 37.0959 288 37.349 286.49 37.631C285.001 37.9154 283.91 38.0564 283.253 38.0564C282.312 38.0564 281.729 37.4694 281.506 36.3325C281.362 35.5985 281.569 34.2256 282.096 32.2147C282.643 30.194 283.219 28.4223 283.815 26.8817C284.292 25.7819 284.695 24.8194 285.064 24.0478C285.406 23.2567 285.662 22.6524 285.797 22.2129C285.944 21.7745 285.977 21.3636 285.908 21.0155C285.84 20.672 285.404 20.0709 284.576 19.2184C283.766 18.3742 282.899 17.593 281.974 16.9024C281.061 16.2151 280.404 15.8662 280.017 15.8662C279.36 15.8662 278.352 17.3709 276.991 20.3639C275.618 23.3566 274.446 26.5874 273.478 30.0801C272.493 33.5578 272.176 36.0836 272.475 37.617C272.799 39.2672 273.766 41.0125 275.362 42.8915C276.97 44.7689 278.532 45.7054 280.044 45.7054C280.856 45.7054 282.557 45.3627 285.154 44.6879C287.744 44.021 289.719 43.4511 291.101 42.9876C290.858 43.7762 290.401 45.6642 289.735 48.6214C289.06 51.5797 288.493 54.3599 288.043 56.9436C287.579 59.5324 287.424 61.2274 287.579 62.0135C287.807 63.1572 288.864 64.1555 290.734 65.0209C291.681 65.4612 292.599 65.9677 293.461 66.5347C294.341 67.0902 294.896 67.3771 295.142 67.3771C295.875 67.3771 296.399 66.8785 296.678 65.8971C296.955 64.8902 297.16 63.2902 297.297 61.0971C297.428 58.8993 297.5 57.7126 297.524 57.5002C298.145 52.5571 298.715 48.6572 299.221 45.7862C299.727 42.921 300.287 40.4219 300.922 38.258C301.552 36.1091 302.519 33.1689 303.813 29.4625C304.261 28.1492 304.763 26.8961 305.276 25.7144C305.8 24.5446 306.036 23.8336 305.996 23.5904C305.883 23.0589 305.395 22.3909 304.529 21.6032Z" fill="#FF182F"/>
<path fill-rule="evenodd" clip-rule="evenodd" d="M51.8969 12.1336C51.9466 12.0187 52.0001 11.8521 52.0447 11.7704C53.1314 8.68395 54.8471 10.7929 55.7826 10.6321C57.2573 10.1761 58.1011 8.86339 58.412 7.00764C58.6042 5.89656 58.7176 3.61637 58.1215 2.66825C57.7629 2.09586 56.4981 1.13808 54.2724 0.712196C49.3719 -0.234843 40.7233 -0.222307 33.242 0.659901C27.6847 1.32863 20.3961 2.9007 10.723 6.45533C7.4172 7.67029 2.24888 8.32147 0.71814 12.2769C-0.521853 15.4712 -0.051189 17.1923 1.32914 18.0014C4.37156 19.7791 11.8374 17.1385 15.2105 16.0726C15.3037 16.1474 15.4023 16.2223 15.5437 16.3315C14.3059 23.3007 11.5711 31.6805 10.7349 39.3958C9.01919 44.4332 5.71482 56.9347 8.47259 61.8793C14.1627 65.3286 17.6351 55.5498 17.2055 55.2204C18.6462 50.9128 23.1567 32.0418 23.69 26.9368C23.8173 25.6516 23.926 24.6206 24.1258 23.287C24.5106 20.6942 24.5583 18.1142 24.9977 15.6782C25.1183 14.9991 25.5098 14.4382 26.0685 13.9851C28.5453 11.9635 34.3566 11.933 35.3457 11.933C36.1155 11.7475 38.2568 11.4212 39.9632 10.8767C40.717 10.6389 40.7235 11.7235 40.5196 12.9811C40.3151 14.2304 39.9056 15.6542 39.8131 16.0952C39.5976 17.1421 39.3881 18.0387 39.1399 19.1426C38.8297 20.5255 38.1882 23.3473 36.7176 29.6438C33.3857 44.8402 30.8097 58.3567 33.6461 65.6927C34.3274 66.6852 36.6377 67.746 37.306 67.4497C39.0157 67.1349 40.2454 66.394 41.133 65.3878C42.6862 63.6281 43.1708 61.0484 43.3004 58.4998C43.5342 53.8328 44.1971 46.6852 45.269 39.6321C45.9804 34.9513 48.228 24.5353 50.0703 17.7589C50.7716 15.1857 51.4388 13.1724 51.8969 12.1336Z" fill="#FF182F"/>
<path fill-rule="evenodd" clip-rule="evenodd" d="M97.8777 67.4842C98.5016 67.4842 98.9181 67.0167 99.1193 66.0854C99.3069 65.1545 99.7409 62.4255 100.402 57.9106C101.066 53.4108 101.967 48.5624 103.11 43.3573C104.252 38.1629 105.917 32.0057 108.121 24.8677C108.955 24.6391 110.539 24.4749 112.848 24.3473C115.16 24.2269 116.864 24.0046 117.96 23.6901C119.052 23.3559 119.488 22.6663 119.273 21.609C119.129 20.86 118.688 20.0179 117.953 19.1293C117.215 18.2245 116.214 17.4562 114.933 16.8269C113.664 16.185 112.233 15.8662 110.651 15.8662C110.241 15.8662 109.612 15.9138 108.769 16.0156C107.837 16.1155 106.412 16.2119 104.508 16.3218C102.583 16.4203 101.153 16.5195 100.206 16.6037C94.7626 17.0106 90.9501 17.4644 88.7465 17.9691C86.5486 18.4634 85.5584 19.3087 85.794 20.5101C86.5066 24.1052 88.0019 25.8964 90.3046 25.8964C90.663 25.8964 93.2294 25.6984 97.9994 25.3047C97.4394 27.4244 96.6391 30.5787 95.5948 34.7863C94.5661 39.01 93.6396 42.945 92.8271 46.6067C91.9901 50.2644 91.3068 53.6628 90.7566 56.7894C90.1894 59.9318 90.0008 61.9159 90.1689 62.7648C90.3293 63.568 90.9121 64.3148 91.9228 65.0558C92.9418 65.7737 94.0576 66.3576 95.2866 66.8094C96.5182 67.2621 97.3906 67.4842 97.8777 67.4842Z" fill="#FF182F"/>
<path fill-rule="evenodd" clip-rule="evenodd" d="M179.502 40.5677C178.915 43.9877 177.947 47.1685 176.613 50.1572C175.261 53.1459 173.782 55.5429 172.171 57.3593C170.553 59.1879 169.085 60.103 167.772 60.103C167.213 60.103 166.622 59.6944 165.985 58.8695C165.359 58.0456 164.902 56.926 164.616 55.5244C163.964 52.2 163.926 48.7114 164.506 45.1183C165.082 41.5116 166.04 38.2157 167.365 35.1984C168.707 32.2035 170.178 29.7813 171.782 27.9352C173.387 26.0906 174.795 25.1719 176.019 25.1719C177.563 25.1719 178.719 27.1344 179.501 31.0697C180.077 33.9956 180.078 37.1609 179.502 40.5677ZM186.526 25.0626C185.661 23.1051 184.775 21.5993 183.9 20.5409C183.023 19.4961 182.341 18.967 181.895 18.967C181.64 18.967 181.099 19.1708 180.292 19.6028C179.483 20.0183 178.897 20.3518 178.562 20.5864C177.581 19.4448 176.433 18.3731 175.117 17.3645C173.814 16.3627 172.744 15.8662 171.949 15.8662C170.726 15.8662 168.969 16.9236 166.709 19.0483C164.449 21.1749 162.272 24.0435 160.166 27.6337C158.069 31.2434 156.52 35.3726 155.515 40.0358C154.504 44.7057 154.492 49.4854 155.461 54.3598C156.031 57.274 157.119 59.7209 158.687 61.6992C160.26 63.6823 162.013 65.1322 163.926 66.0678C165.841 67.0166 167.604 67.4844 169.213 67.4844C173.003 67.4844 176.645 65.7958 180.137 62.4248C183.619 59.0435 186.192 54.5853 187.85 49.0601C189.511 43.5478 189.766 37.815 188.592 31.8878C188.08 29.3081 187.396 27.0275 186.526 25.0626ZM216.552 31.0217C215.45 32.4881 213.952 33.8502 212.049 35.121C210.154 36.4063 208.166 37.412 206.08 38.1327C207.216 31.854 207.657 28.0191 207.387 26.6448C207.233 25.8728 206.711 25.1114 205.833 24.3592C207.614 23.8161 209.603 23.5503 211.801 23.5503C213.539 23.5503 214.933 23.873 215.985 24.5565C217.025 25.2288 217.64 26.0688 217.837 27.077C218.074 28.2553 217.64 29.5696 216.552 31.0217ZM212.821 52.6122C211.614 54.2997 209.907 55.6844 207.714 56.7644C205.514 57.8662 203.212 58.4 200.813 58.4C201.831 54.9678 202.619 52.3193 203.192 50.4898C203.747 48.645 204.238 46.8326 204.631 44.9917C206.141 44.5518 207.529 44.3272 208.803 44.3272C211.943 44.3272 213.729 45.4455 214.166 47.6374C214.482 49.2579 214.04 50.922 212.821 52.6122ZM224.23 34.9606C225.906 32.3412 226.471 29.6063 225.906 26.78C225.276 23.5578 223.431 20.9406 220.369 18.9154C217.328 16.8874 213.577 15.8666 209.154 15.8666C207.226 15.8666 204.589 16.1624 201.271 16.7513C198.086 17.2997 195.724 17.8563 194.17 18.4097C192.63 18.9674 191.976 19.8399 192.219 21.0384C192.468 22.3003 193.087 23.5578 194.091 24.8295C195.087 26.0875 196.408 26.8579 198.063 27.1513C197.382 33.0285 196.566 38.0249 195.578 42.1512C194.592 46.2854 193.656 49.5059 192.758 51.8292C191.864 54.1357 191.12 56.145 190.527 57.8269C189.929 59.4998 189.748 60.9488 189.993 62.1768C190.061 62.5197 190.563 63.1344 191.505 64.0079C192.447 64.8672 193.458 65.6689 194.529 66.3934C195.603 67.112 196.378 67.4849 196.862 67.4849C197.577 67.4849 198.113 67.1649 198.487 66.5313C198.868 65.8873 199.277 64.7401 199.715 63.0523C202.286 66.0185 204.779 67.4849 207.212 67.4849C209.524 67.4849 212.035 66.412 214.733 64.23C217.424 62.0502 219.594 59.4435 221.229 56.4269C222.861 53.3896 223.453 50.7067 222.99 48.3908C222.748 47.1629 222.166 45.8746 221.25 44.5518C220.337 43.2146 219.03 42.0491 217.328 41.0204C220.244 39.5819 222.544 37.5754 224.23 34.9606ZM143.366 32.7529C141.937 34.6085 140.063 36.3543 137.761 38.0033C135.434 39.6359 133.266 40.774 131.226 41.3835C131.495 39.2678 132.041 36.2483 132.875 32.3072C133.367 29.9624 133.747 28.4054 134.024 27.6204C134.273 26.8259 134.697 26.2708 135.258 25.9477C135.83 25.6163 136.799 25.4068 138.189 25.3069C138.55 25.2615 139.103 25.2291 139.844 25.2291C142.995 25.2291 144.748 26.168 145.122 28.0517C145.382 29.339 144.795 30.9128 143.366 32.7529ZM151.357 22.008C149.833 20.2486 147.782 18.7783 145.153 17.6102C142.547 16.4429 139.561 15.8666 136.187 15.8666C134.256 15.8666 132.225 16.075 130.077 16.4927C127.924 16.8956 126.135 17.5157 124.695 18.3162C123.253 19.1264 122.633 20.0473 122.838 21.1079C123.492 24.3799 124.689 26.4259 126.455 27.2192C124.82 34.0764 123.508 39.3803 122.548 43.1223C121.591 46.8742 120.591 50.6462 119.566 54.4734C118.536 58.278 117.935 60.6632 117.753 61.5851C117.588 62.5186 117.55 63.2879 117.664 63.876C117.844 64.7776 118.225 65.3662 118.827 65.6518C119.411 65.9395 120.403 66.2284 121.776 66.5304C122.472 66.6892 123.218 66.8852 123.984 67.1289C124.746 67.362 125.275 67.4837 125.565 67.4837C126.414 67.4837 127.054 67.0159 127.466 66.0975C127.863 65.1786 128.206 63.7626 128.486 61.8706C128.759 59.9734 129.12 57.4288 129.586 54.2491C130.048 51.0793 130.664 47.9927 131.395 44.9905C133.63 48.2873 135.473 49.9343 136.919 49.9343C138.624 49.9343 140.989 48.5219 143.988 45.6943C146.999 42.8665 149.554 39.6562 151.659 36.0582C153.762 32.4609 154.598 29.5482 154.146 27.2912C153.81 25.5479 152.873 23.785 151.357 22.008Z" fill="#FF182F"/>
</g>
<defs>
<clipPath id="clip0_145_8435">
<rect width="306" height="103.5" fill="white"/>
</clipPath>
</defs>
</svg>
